<svg width="40" height="40" viewBox="0 0 40 40" fill="none" xmlns="http://www.w3.org/2000/svg">
  <!-- Phoenix body -->
  <path d="M20 10C16 10 13 13 13 17C13 19 14 21 15 22L14 30L20 28C21 28.5 21.5 28.5 22 28.5C22.5 28.5 23 28.5 24 28L30 30L29 22C30 21 31 19 31 17C31 13 28 10 24 10C23 10 22 10 21 10C20 10 20 10 20 10Z" fill="#000000"/>
  
  <!-- Phoenix head -->
  <circle cx="20" cy="12" r="3" fill="#000000"/>
  
  <!-- Phoenix beak -->
  <path d="M23 12L25 13L23 14Z" fill="#FFFFFF"/>
  
  <!-- Phoenix eye -->
  <circle cx="21" cy="12" r="1" fill="#FFFFFF"/>
  
  <!-- Phoenix crown/crest (3 feathers) -->
  <path d="M20 8L19 10L20 11L21 10L20 8Z" fill="#000000"/>
  <path d="M18 9L17 11L18 12L19 11L18 9Z" fill="#000000"/>
  <path d="M22 9L21 11L22 12L23 11L22 9Z" fill="#000000"/>
  
  <!-- Phoenix left wing (flame-like) -->
  <path d="M15 18C14 17 13 16 13 15C13 14 14 13 15 13C16 13 17 14 17 15C17 16 16 17 15 18Z" fill="#FFFFFF"/>
  <path d="M14 20C13 19 12 18 12 17C12 16 13 15 14 15C15 15 16 16 16 17C16 18 15 19 14 20Z" fill="#FFFFFF"/>
  <path d="M13 22C12 21 11 20 11 19C11 18 12 17 13 17C14 17 15 18 15 19C15 20 14 21 13 22Z" fill="#FFFFFF"/>
  
  <!-- Phoenix right wing (flame-like) -->
  <path d="M25 18C26 17 27 16 27 15C27 14 26 13 25 13C24 13 23 14 23 15C23 16 24 17 25 18Z" fill="#FFFFFF"/>
  <path d="M26 20C27 19 28 18 28 17C28 16 27 15 26 15C25 15 24 16 24 17C24 18 25 19 26 20Z" fill="#FFFFFF"/>
  <path d="M27 22C28 21 29 20 29 19C29 18 28 17 27 17C26 17 25 18 25 19C25 20 26 21 27 22Z" fill="#FFFFFF"/>
  
  <!-- Phoenix tail feathers (long flame-like) -->
  <path d="M12 26C11 25 10 24 10 23C10 22 11 21 12 21C13 21 14 22 14 23C14 24 13 25 12 26Z" fill="#FFFFFF"/>
  <path d="M11 28C10 27 9 26 9 25C9 24 10 23 11 23C12 23 13 24 13 25C13 26 12 27 11 28Z" fill="#FFFFFF"/>
  <path d="M20 30C19 29 18 28 18 27C18 26 19 25 20 25C21 25 22 26 22 27C22 28 21 29 20 30Z" fill="#FFFFFF"/>
  <path d="M28 26C29 25 30 24 30 23C30 22 29 21 28 21C27 21 26 22 26 23C26 24 27 25 28 26Z" fill="#FFFFFF"/>
  <path d="M29 28C30 27 31 26 31 25C31 24 30 23 29 23C28 23 27 24 27 25C27 26 28 27 29 28Z" fill="#FFFFFF"/>
</svg>
